<svg xmlns="http://www.w3.org/2000/svg" viewBox="0 0 800 500">
  <!-- 배경색 제거 -->
  
  <!-- 풀밭 -->
  <path d="M0 350 L800 350 L800 500 L0 500 Z" fill="#7CFC00"/>
  
  <!-- 잔디 디테일 -->
  <g fill="#66BB6A">
    <path d="M50 320 Q60 300, 70 320 Q80 300, 90 320 Q100 300, 110 320 L110 350 L50 350 Z"/>
    <path d="M150 330 Q160 310, 170 330 Q180 310, 190 330 Q200 310, 210 330 L210 360 L150 360 Z"/>
    <path d="M250 325 Q260 305, 270 325 Q280 305, 290 325 Q300 305, 310 325 L310 355 L250 355 Z"/>
    <path d="M350 330 Q360 310, 370 330 Q380 310, 390 330 Q400 310, 410 330 L410 360 L350 360 Z"/>
    <path d="M450 325 Q460 305, 470 325 Q480 305, 490 325 Q500 305, 510 325 L510 355 L450 355 Z"/>
    <path d="M550 330 Q560 310, 570 330 Q580 310, 590 330 Q600 310, 610 330 L610 360 L550 360 Z"/>
    <path d="M650 320 Q660 300, 670 320 Q680 300, 690 320 Q700 300, 710 320 L710 350 L650 350 Z"/>
    <path d="M750 325 Q760 305, 770 325 Q780 305, 790 325 Q800 305, 810 325 L810 355 L750 355 Z"/>
  </g>
  
  <!-- 꽃 -->
  <g>
    <circle cx="120" cy="330" r="5" fill="#FF69B4"/>
    <circle cx="320" cy="335" r="5" fill="#FF69B4"/>
    <circle cx="520" cy="330" r="5" fill="#FF69B4"/>
    <circle cx="720" cy="335" r="5" fill="#FF69B4"/>
    <circle cx="220" cy="340" r="5" fill="#FFFF00"/>
    <circle cx="420" cy="335" r="5" fill="#FFFF00"/>
    <circle cx="620" cy="340" r="5" fill="#FFFF00"/>
  </g>
  

  
  <!-- 작은 나무 1 -->
  <g>
    <path d="M100 410 L100 360" stroke="#8B4513" stroke-width="10"/>
    <path d="M80 360 L120 360 L100 330 Z" fill="#228B22"/>
    <path d="M85 340 L115 340 L100 315 Z" fill="#228B22"/>
    <path d="M90 320 L110 320 L100 300 Z" fill="#228B22"/>
  </g>
  
  <!-- 작은 나무 2 -->
  <g>
    <path d="M400 420 L400 370" stroke="#8B4513" stroke-width="10"/>
    <path d="M380 370 L420 370 L400 340 Z" fill="#228B22"/>
    <path d="M385 350 L415 350 L400 325 Z" fill="#228B22"/>
    <path d="M390 330 L410 330 L400 310 Z" fill="#228B22"/>
  </g>
  
  <!-- 작은 나무 3 -->
  <g>
    <path d="M700 410 L700 360" stroke="#8B4513" stroke-width="10"/>
    <path d="M680 360 L720 360 L700 330 Z" fill="#228B22"/>
    <path d="M685 340 L715 340 L700 315 Z" fill="#228B22"/>
    <path d="M690 320 L710 320 L700 300 Z" fill="#228B22"/>
  </g>
  

</svg>